[img]http://img842.imageshack.us/img842/9356/frightnight2011a.jpg[/img]

[b][size=200][color=black]PLOT[/color][/size][/b]

[code]A teenager suspects that his new neighbor is a vampire.[/code]

[b][size=200][color=black]IMDB[/color][/size][/b]

[code]http://www.imdb.com/title/tt1438176/[/code]

[b][size=200][color=black]MOVIE INFO[/color][/size][/b]

[code]Fright Night [2011] BDRip x264 AAC-V3nom

Format                                   : MPEG-4
Format profile                           : Base Media / Version 2
Codec ID                                 : mp42
File size                                : 352 MiB
Duration                                 : 1h 45mn
Overall bit rate mode                    : Variable
Overall bit rate                         : 464 Kbps
Encoded date                             : UTC 2012-12-08 18:55:12
Tagged date                              : UTC 2012-12-08 19:39:24

Video
ID                                       : 1
Format                                   : AVC
Format/Info                              : Advanced Video Codec
Format profile                           : Main@L3.0
Format settings, CABAC                   : Yes
Format settings, ReFrames                : 4 frames
Codec ID                                 : avc1
Codec ID/Info                            : Advanced Video Coding
Duration                                 : 1h 45mn
Bit rate mode                            : Variable
Bit rate                                 : 330 Kbps
Width                                    : 720 pixels
Height                                   : 400 pixels
Display aspect ratio                     : 16:9
Frame rate mode                          : Variable
Frame rate                               : 23.976 fps
Minimum frame rate                       : 23.974 fps
Maximum frame rate                       : 23.981 fps
Color space                              : YUV
Chroma subsampling                       : 4:2:0
Bit depth                                : 8 bits
Scan type                                : Progressive
Bits/(Pixel*Frame)                       : 0.048
Stream size                              : 251 MiB (71%)
Writing library                          : x264 core 112

Audio
ID                                       : 2
Format                                   : AAC
Format/Info                              : Advanced Audio Codec
Format profile                           : LC
Codec ID                                 : 40
Duration                                 : 1h 45mn
Bit rate mode                            : Variable
Bit rate                                 : 128 Kbps
Maximum bit rate                         : 215 Kbps
Channel(s)                               : 2 channels
Channel positions                        : Front: L R
Sampling rate                            : 48.0 KHz
Compression mode                         : Lossy
Delay relative to video                  : 83ms
Stream size                              : 96.7 MiB (27%)
Encoded date                             : UTC 2012-12-08 18:55:12
Tagged date                              : UTC 2012-12-08 19:39:18[/code]

[b][size=200][color=black]SOURCE[/color][/size][/b]

[code]Fright.Night.2011.BRRip.XviD.AC3-LYCAN(Thanks)[/code]

[b][size=200][color=black]SCREENSHOTS[/color][/size][/b]

[img]http://img607.imageshack.us/img607/8864/frightnight2011bdripx26.jpg[/img]

[img]http://kastatic.com/i2/users/133df62bbf28e62494bb17fe11078f1a.gif[/img][img]http://kastatic.com/i2/users/133df62bbf28e62494bb17fe11078f1a.gif[/img]